<?xml version="1.0" encoding="UTF-8" standalone="no"?><!DOCTYPE svg PUBLIC "-//W3C//DTD SVG 1.1//EN" "http://www.w3.org/Graphics/SVG/1.1/DTD/svg11.dtd"><svg width="100%" height="100%" viewBox="0 0 158 41" version="1.1" xmlns="http://www.w3.org/2000/svg" xmlns:xlink="http://www.w3.org/1999/xlink" xml:space="preserve" xmlns:serif="http://www.serif.com/" style="fill-rule:evenodd;clip-rule:evenodd;stroke-linejoin:round;stroke-miterlimit:2;"><path d="M113.228,35.048l0,-19.763c0,-0.366 -0.078,-0.621 -0.242,-0.765c-0.157,-0.137 -0.438,-0.209 -0.849,-0.209l-5.457,0c-0.699,0 -1.281,0.171 -1.732,0.517c-0.451,0.346 -0.863,0.921 -1.215,1.725c-0.092,0.216 -0.19,0.536 -0.308,0.954c-0.163,0.628 -0.392,0.948 -0.666,0.961c-0.157,-0.013 -0.255,-0.053 -0.308,-0.117c-0.052,-0.06 -0.078,-0.197 -0.078,-0.399c0,-0.157 0,-0.282 0.007,-0.386c0.006,-0.105 0.019,-0.196 0.032,-0.288l0.419,-3.94c0.039,-0.346 0.123,-0.575 0.261,-0.68c0.131,-0.111 0.477,-0.163 1.039,-0.163c0.17,0 0.765,0.039 1.79,0.124c1.033,0.085 1.974,0.124 2.83,0.124l12.234,0c0.955,0 1.994,-0.039 3.111,-0.124c1.118,-0.085 1.758,-0.124 1.922,-0.124c0.268,0 0.464,0.052 0.594,0.163c0.125,0.105 0.203,0.281 0.229,0.523l0.268,3.562l0,0.267c0,0.256 -0.039,0.445 -0.118,0.562c-0.071,0.125 -0.196,0.183 -0.359,0.183c-0.281,0 -0.464,-0.254 -0.555,-0.764c-0.092,-0.51 -0.19,-0.869 -0.308,-1.072c-0.254,-0.509 -0.66,-0.908 -1.222,-1.189c-0.562,-0.282 -1.216,-0.419 -1.954,-0.419l-5.091,0c-0.477,0 -0.791,0.072 -0.961,0.209c-0.163,0.144 -0.248,0.412 -0.248,0.804l0,19.881c0,1.182 0.098,1.973 0.294,2.366c0.203,0.385 0.595,0.705 1.183,0.96c0.294,0.144 0.686,0.268 1.183,0.366c0.066,0.013 0.118,0.026 0.157,0.039c0.346,0.052 0.568,0.118 0.673,0.203c0.098,0.078 0.15,0.203 0.15,0.372c0,0.203 -0.072,0.353 -0.209,0.445c-0.143,0.098 -0.36,0.143 -0.653,0.143c-0.321,0 -0.974,-0.045 -1.974,-0.13c-0.994,-0.092 -1.824,-0.137 -2.49,-0.137c-0.876,0 -1.804,0.058 -2.778,0.169c-0.966,0.118 -1.496,0.177 -1.588,0.177c-0.228,0 -0.411,-0.046 -0.542,-0.143c-0.137,-0.099 -0.203,-0.23 -0.203,-0.393c0,-0.203 0.072,-0.352 0.209,-0.457c0.144,-0.105 0.451,-0.183 0.922,-0.249c0.052,-0.013 0.111,-0.026 0.189,-0.039c0.445,-0.098 0.778,-0.196 0.994,-0.288c0.549,-0.241 0.921,-0.555 1.124,-0.934c0.196,-0.386 0.294,-1.261 0.294,-2.627Zm-18.402,-0.346l0,-16.979c0,-1.111 -0.085,-1.896 -0.262,-2.353c-0.169,-0.464 -0.47,-0.85 -0.908,-1.17c-0.301,-0.255 -0.765,-0.437 -1.372,-0.555l-0.04,0c-0.346,-0.065 -0.568,-0.144 -0.673,-0.229c-0.098,-0.091 -0.15,-0.222 -0.15,-0.405c0,-0.19 0.059,-0.327 0.17,-0.399c0.117,-0.078 0.32,-0.117 0.614,-0.117c0.092,0 0.569,0.039 1.445,0.124c0.875,0.085 1.692,0.124 2.463,0.124c1.353,0 2.673,-0.072 3.961,-0.209c0.229,-0.027 0.359,-0.039 0.398,-0.039c0.183,0 0.327,0.052 0.445,0.15c0.111,0.105 0.169,0.229 0.169,0.366c0,0.157 -0.052,0.281 -0.163,0.386c-0.105,0.104 -0.366,0.209 -0.771,0.326c-0.346,0.105 -0.614,0.203 -0.804,0.294c-0.196,0.098 -0.366,0.209 -0.516,0.34c-0.333,0.281 -0.568,0.621 -0.699,1.033c-0.137,0.405 -0.203,1.183 -0.203,2.333l0,17.018c0,1.124 0.092,1.934 0.268,2.431c0.177,0.497 0.49,0.908 0.941,1.242c0.327,0.254 0.791,0.431 1.372,0.536c0.04,0.012 0.066,0.019 0.079,0.019c0.347,0.052 0.575,0.124 0.693,0.209c0.111,0.092 0.169,0.216 0.169,0.386c0,0.202 -0.052,0.346 -0.163,0.418c-0.104,0.078 -0.326,0.117 -0.66,0.117c-0.399,0 -1.059,-0.039 -1.993,-0.117c-0.928,-0.072 -1.673,-0.111 -2.235,-0.111c-1.203,0 -2.425,0.065 -3.66,0.189c-0.255,0.027 -0.405,0.039 -0.457,0.039c-0.21,0 -0.359,-0.045 -0.471,-0.13c-0.111,-0.092 -0.164,-0.216 -0.164,-0.366c0,-0.281 0.249,-0.523 0.745,-0.726c0.04,-0.012 0.066,-0.019 0.079,-0.019c0.268,-0.092 0.503,-0.19 0.719,-0.307c0.209,-0.111 0.405,-0.248 0.581,-0.399c0.386,-0.346 0.654,-0.738 0.811,-1.183c0.163,-0.437 0.242,-1.196 0.242,-2.267Zm-21.605,-1.726l0,-15.443c0,-1.176 -0.089,-1.972 -0.262,-2.392c-0.173,-0.423 -0.464,-0.804 -0.889,-1.15c-0.189,-0.15 -0.399,-0.275 -0.62,-0.366c-0.222,-0.085 -0.477,-0.144 -0.759,-0.17c-0.019,-0.013 -0.052,-0.026 -0.091,-0.039c-0.399,-0.105 -0.595,-0.275 -0.595,-0.517c0,-0.228 0.046,-0.385 0.144,-0.457c0.098,-0.078 0.294,-0.124 0.601,-0.137c0.131,0 0.608,0.039 1.438,0.124c0.83,0.085 1.588,0.124 2.281,0.124c1.209,0 2.424,-0.072 3.633,-0.209c0.236,-0.026 0.367,-0.039 0.405,-0.039c0.177,0 0.314,0.045 0.413,0.137c0.097,0.085 0.143,0.216 0.143,0.379c0,0.281 -0.274,0.517 -0.823,0.693l-0.04,0.019c-0.065,0.026 -0.143,0.059 -0.248,0.099c-0.385,0.15 -0.66,0.3 -0.823,0.457c-0.334,0.294 -0.565,0.661 -0.699,1.111c-0.134,0.445 -0.203,1.222 -0.203,2.333l0,16.685c0,0.96 0.21,1.605 0.634,1.953c0.419,0.345 1.228,0.517 2.431,0.517c3.015,0 6.768,-0.171 9.407,-1.837c0.53,-0.334 1.016,-0.802 1.477,-1.379c0.46,-0.573 0.765,-0.862 0.915,-0.862c0.105,0 0.186,0.061 0.248,0.183c0.062,0.119 0.099,0.281 0.099,0.49c0,0.353 -0.072,0.874 -0.373,1.483c-1.674,3.391 -4.853,3.46 -8.215,3.49c-1.615,0.015 -4.277,-0.111 -5.551,-0.111c-2.131,0 -4.13,0.076 -5.993,0.209c-0.242,0.017 -0.392,0.02 -0.438,0.02c-0.105,0 -0.196,-0.046 -0.281,-0.144c-0.085,-0.098 -0.124,-0.203 -0.124,-0.314c0,-0.169 0.045,-0.301 0.143,-0.411c0.098,-0.112 0.301,-0.242 0.622,-0.392c0.026,-0.013 0.06,-0.022 0.097,-0.04c0.434,-0.211 0.736,-0.44 0.935,-0.653c0.337,-0.362 0.592,-0.773 0.738,-1.242c0.148,-0.471 0.223,-1.209 0.223,-2.202Zm-11.626,1.726l0,-16.979c0,-1.111 -0.085,-1.896 -0.261,-2.353c-0.17,-0.464 -0.47,-0.85 -0.908,-1.17c-0.301,-0.255 -0.765,-0.437 -1.373,-0.555l-0.039,0c-0.346,-0.065 -0.568,-0.144 -0.673,-0.229c-0.098,-0.091 -0.151,-0.222 -0.151,-0.405c0,-0.19 0.059,-0.327 0.17,-0.399c0.118,-0.078 0.321,-0.117 0.615,-0.117c0.091,0 0.568,0.039 1.444,0.124c0.876,0.085 1.693,0.124 2.464,0.124c1.353,0 2.673,-0.072 3.96,-0.209c0.229,-0.027 0.36,-0.039 0.399,-0.039c0.183,0 0.327,0.052 0.444,0.15c0.112,0.105 0.17,0.229 0.17,0.366c0,0.157 -0.052,0.281 -0.163,0.386c-0.105,0.104 -0.366,0.209 -0.771,0.326c-0.347,0.105 -0.615,0.203 -0.804,0.294c-0.196,0.098 -0.367,0.209 -0.516,0.34c-0.334,0.281 -0.569,0.621 -0.7,1.033c-0.137,0.405 -0.202,1.183 -0.202,2.333l0,17.018c0,1.124 0.091,1.934 0.268,2.431c0.176,0.497 0.49,0.908 0.94,1.242c0.327,0.254 0.791,0.431 1.373,0.536c0.039,0.012 0.065,0.019 0.078,0.019c0.347,0.052 0.576,0.124 0.693,0.209c0.111,0.092 0.17,0.216 0.17,0.386c0,0.202 -0.052,0.346 -0.163,0.418c-0.105,0.078 -0.327,0.117 -0.661,0.117c-0.398,0 -1.058,-0.039 -1.993,-0.117c-0.928,-0.072 -1.673,-0.111 -2.234,-0.111c-1.203,0 -2.425,0.065 -3.66,0.189c-0.255,0.027 -0.406,0.039 -0.458,0.039c-0.209,0 -0.359,-0.045 -0.47,-0.13c-0.111,-0.092 -0.163,-0.216 -0.163,-0.366c0,-0.281 0.248,-0.523 0.745,-0.726c0.038,-0.012 0.064,-0.019 0.078,-0.019c0.268,-0.092 0.503,-0.19 0.719,-0.307c0.209,-0.111 0.405,-0.248 0.581,-0.399c0.386,-0.346 0.654,-0.738 0.81,-1.183c0.164,-0.437 0.242,-1.196 0.242,-2.267Zm-21.406,0l0,-16.979c0,-1.033 -0.098,-1.798 -0.288,-2.301c-0.189,-0.496 -0.516,-0.908 -0.974,-1.242c-0.196,-0.13 -0.398,-0.235 -0.627,-0.313c-0.222,-0.085 -0.503,-0.157 -0.849,-0.222c-0.36,-0.065 -0.588,-0.137 -0.693,-0.21c-0.098,-0.078 -0.15,-0.195 -0.15,-0.346c0,-0.202 0.052,-0.346 0.163,-0.431c0.111,-0.085 0.326,-0.124 0.66,-0.124c0.131,0 0.64,0.032 1.542,0.104c0.902,0.072 1.745,0.105 2.536,0.105c0.497,0 1.327,-0.033 2.477,-0.105c1.157,-0.072 2.071,-0.104 2.751,-0.104c2.81,0 5,0.581 6.575,1.745c1.575,1.157 2.365,2.777 2.365,4.862c0,1.196 -0.3,2.255 -0.901,3.157c-0.595,0.908 -1.503,1.679 -2.719,2.319l0,0.36c1.941,0.347 3.431,1.104 4.463,2.274c1.033,1.164 1.55,2.667 1.55,4.503c0,2.594 -0.87,4.653 -2.615,6.176c-1.745,1.523 -4.11,2.288 -7.11,2.288c-1.026,0 -2.248,-0.06 -3.679,-0.177c-1.432,-0.111 -2.334,-0.17 -2.719,-0.17c-1.137,0 -2.326,0.065 -3.582,0.189c-0.307,0.027 -0.496,0.039 -0.575,0.039c-0.097,0 -0.196,-0.058 -0.294,-0.169c-0.097,-0.118 -0.143,-0.236 -0.143,-0.366c0,-0.268 0.228,-0.49 0.692,-0.667l0.02,0c0.3,-0.137 0.542,-0.268 0.712,-0.372c0.176,-0.111 0.327,-0.236 0.451,-0.373c0.347,-0.346 0.595,-0.758 0.739,-1.248c0.15,-0.484 0.222,-1.216 0.222,-2.202Zm3.045,1.476c0,1.111 0.301,1.856 0.902,2.248c0.594,0.386 1.87,0.582 3.81,0.582c2.372,0 4.157,-0.509 5.346,-1.529c1.196,-1.02 1.791,-2.555 1.791,-4.595c0,-2.195 -0.706,-3.901 -2.124,-5.13c-1.418,-1.222 -3.398,-1.836 -5.954,-1.836l-2.392,0c-0.601,0 -0.98,0.078 -1.137,0.242c-0.163,0.156 -0.242,0.549 -0.242,1.176l0,8.842Zm0,-13.018c0,0.614 0.079,0.994 0.229,1.15c0.157,0.151 0.47,0.229 0.961,0.229l2.77,0c2.02,0 3.484,-0.34 4.399,-1.026c0.908,-0.679 1.366,-1.764 1.366,-3.242c0,-1.842 -0.7,-3.365 -2.105,-4.581c-1.405,-1.208 -3.169,-1.816 -5.307,-1.816c-0.954,0 -1.581,0.143 -1.875,0.431c-0.294,0.288 -0.438,0.863 -0.438,1.732l0,7.123Zm-21.257,4.102l3.317,8.38c0.152,0.372 0.266,0.699 0.35,0.989c0.076,0.289 0.122,0.539 0.122,0.745c0,0.373 -0.115,0.685 -0.35,0.928c-0.229,0.244 -0.624,0.472 -1.187,0.677c-0.046,0.015 -0.129,0.046 -0.251,0.091c-0.517,0.176 -0.776,0.426 -0.776,0.738c0,0.114 0.053,0.236 0.152,0.357c0.107,0.115 0.22,0.176 0.335,0.176c0.091,0 0.296,-0.023 0.624,-0.069c1.247,-0.159 2.457,-0.243 3.636,-0.243c1.125,0 2.275,0.046 3.438,0.136c1.164,0.084 1.765,0.13 1.796,0.13c0.22,0 0.38,-0.038 0.464,-0.122c0.091,-0.083 0.137,-0.221 0.137,-0.41c0,-0.328 -0.327,-0.548 -0.982,-0.67c-0.487,-0.091 -0.859,-0.183 -1.111,-0.289c-0.639,-0.266 -1.194,-0.715 -1.673,-1.346c-0.472,-0.632 -0.974,-1.621 -1.491,-2.96l-10.338,-26.382c-0.016,-0.015 -0.031,-0.038 -0.046,-0.068c-0.16,-0.434 -0.35,-0.655 -0.555,-0.67c-0.167,0.015 -0.297,0.061 -0.396,0.137c-0.091,0.069 -0.205,0.244 -0.342,0.51l-12.635,27.036c-0.48,0.981 -0.899,1.727 -1.264,2.244c-0.364,0.525 -0.73,0.928 -1.103,1.21c-0.19,0.129 -0.479,0.281 -0.867,0.441c-0.076,0.03 -0.129,0.053 -0.16,0.069l-0.023,0c-0.532,0.205 -0.798,0.433 -0.798,0.669c0,0.16 0.06,0.304 0.175,0.426c0.122,0.114 0.251,0.175 0.38,0.175c0.092,0 0.419,-0.046 0.997,-0.13c0.57,-0.09 1.095,-0.136 1.567,-0.136c0.966,0 2.039,0.046 3.21,0.136c1.171,0.084 1.833,0.13 1.986,0.13c0.266,0 0.456,-0.046 0.57,-0.13c0.107,-0.09 0.167,-0.228 0.167,-0.402c0,-0.343 -0.288,-0.556 -0.852,-0.647c-0.342,-0.046 -0.601,-0.107 -0.775,-0.183c-0.571,-0.22 -0.997,-0.502 -1.286,-0.852c-0.29,-0.35 -0.434,-0.738 -0.434,-1.148c0,-0.297 0.054,-0.624 0.16,-0.974c0.099,-0.35 0.282,-0.807 0.532,-1.369l3.321,-7.295l5.998,-13.009c0.069,-0.16 0.167,-0.289 0.274,-0.373c0.114,-0.091 0.221,-0.137 0.327,-0.137c0.084,0 0.183,0.053 0.289,0.152c0.099,0.107 0.183,0.244 0.244,0.404l5.127,12.928Zm118.088,-22.449c-0.533,1.031 0.389,1.975 1.922,0.409l3.465,-3.471c0.719,-0.779 0.486,-1.663 -0.582,-1.751l-1.951,0c-0.359,0.01 -0.65,0.166 -0.699,0.408l-2.155,4.405Zm5.563,22.449l3.317,8.38c0.152,0.372 0.266,0.699 0.35,0.989c0.076,0.289 0.121,0.539 0.121,0.745c0,0.373 -0.114,0.685 -0.349,0.928c-0.229,0.244 -0.625,0.472 -1.188,0.677c-0.045,0.015 -0.128,0.046 -0.25,0.091c-0.518,0.176 -0.776,0.426 -0.776,0.738c0,0.114 0.053,0.236 0.152,0.357c0.106,0.115 0.22,0.176 0.335,0.176c0.091,0 0.296,-0.023 0.623,-0.069c1.248,-0.159 2.457,-0.243 3.637,-0.243c1.125,0 2.274,0.046 3.438,0.136c1.164,0.084 1.765,0.13 1.796,0.13c0.22,0 0.379,-0.038 0.464,-0.122c0.091,-0.083 0.137,-0.221 0.137,-0.41c0,-0.328 -0.328,-0.548 -0.982,-0.67c-0.487,-0.091 -0.86,-0.183 -1.111,-0.289c-0.639,-0.266 -1.194,-0.715 -1.673,-1.346c-0.472,-0.632 -0.974,-1.621 -1.491,-2.96l-10.338,-26.382c-0.016,-0.015 -0.031,-0.038 -0.046,-0.068c-0.16,-0.434 -0.35,-0.655 -0.555,-0.67c-0.168,0.015 -0.297,0.061 -0.396,0.137c-0.092,0.069 -0.205,0.244 -0.343,0.51l-12.635,27.036c-0.479,0.981 -0.898,1.727 -1.263,2.244c-0.365,0.525 -0.73,0.928 -1.103,1.21c-0.19,0.129 -0.479,0.281 -0.867,0.441c-0.076,0.03 -0.129,0.053 -0.16,0.069l-0.023,0c-0.532,0.205 -0.798,0.433 -0.798,0.669c0,0.16 0.06,0.304 0.174,0.426c0.122,0.114 0.251,0.175 0.381,0.175c0.091,0 0.418,-0.046 0.996,-0.13c0.571,-0.09 1.096,-0.136 1.568,-0.136c0.966,0 2.039,0.046 3.21,0.136c1.171,0.084 1.833,0.13 1.985,0.13c0.267,0 0.456,-0.046 0.571,-0.13c0.107,-0.09 0.167,-0.228 0.167,-0.402c0,-0.343 -0.289,-0.556 -0.852,-0.647c-0.342,-0.046 -0.601,-0.107 -0.776,-0.183c-0.571,-0.22 -0.996,-0.502 -1.286,-0.852c-0.289,-0.35 -0.433,-0.738 -0.433,-1.148c0,-0.297 0.054,-0.624 0.16,-0.974c0.099,-0.35 0.281,-0.807 0.532,-1.369l3.321,-7.295l5.998,-13.009c0.069,-0.16 0.167,-0.289 0.274,-0.373c0.114,-0.091 0.221,-0.137 0.327,-0.137c0.083,0 0.182,0.053 0.289,0.152c0.099,0.107 0.182,0.244 0.243,0.404l5.128,12.928Zm-74.106,11.958c-1.02,0.059 -0.949,1.293 -0.173,1.175c4.274,-0.592 8.335,-0.536 13.12,-0.218c4.408,0.249 6.106,-2.254 6.722,-4.302c0.115,-0.376 -0.111,-0.454 -0.248,-0.088c-0.832,1.488 -2.282,3.21 -6.461,3.297c-4.402,0.268 -7.073,-0.409 -12.96,0.136" style="fill:#fefefe;fill-rule:nonzero;"/></svg>